<?xml version="1.0"?>
<svg xmlns="http://www.w3.org/2000/svg" viewBox="0 0 64 64" width="512" height="512"><g id="Clock-2" data-name="Clock"><circle cx="32" cy="32" r="1"/><path d="M47,34A13,13,0,1,0,60,47,13.015,13.015,0,0,0,47,34ZM44.786,57.776a10.914,10.914,0,0,1-2.222-.71l.809-1.829a8.966,8.966,0,0,0,1.815.58ZM41,48V46h5V37h2V47a1,1,0,0,1-1,1Zm6,10V56a9.011,9.011,0,0,0,9-9h2A11.013,11.013,0,0,1,47,58Z"/><path d="M20.088,51.2a1,1,0,0,1,1.076-.056,21.509,21.509,0,0,0,4.96,2.055,1,1,0,0,1,.722.8l1,6h8.305l.377-2.28a14.98,14.98,0,0,1-3.976-6.741c-.185.006-.367.021-.553.021A19,19,0,1,1,51,32c0,.186-.015.368-.021.553a14.98,14.98,0,0,1,6.741,3.976L60,36.152v-8.3l-6-1a1,1,0,0,1-.8-.722,21.509,21.509,0,0,0-2.055-4.96,1,1,0,0,1,.056-1.076l3.538-4.95L48.862,9.266,43.912,12.8a1,1,0,0,1-1.076.056,21.509,21.509,0,0,0-4.96-2.055,1,1,0,0,1-.722-.8l-1-6H27.847l-1,6a1,1,0,0,1-.722.8,21.509,21.509,0,0,0-4.96,2.055,1,1,0,0,1-1.076-.056l-4.95-3.538L9.266,15.138l3.538,4.95a1,1,0,0,1,.056,1.076,21.509,21.509,0,0,0-2.055,4.96,1,1,0,0,1-.8.722l-6,1v8.306l6,1a1,1,0,0,1,.8.722,21.509,21.509,0,0,0,2.055,4.96,1,1,0,0,1-.056,1.076l-3.538,4.95,5.872,5.872Z"/><path d="M47,32a15.068,15.068,0,0,1,1.994.148C49,32.1,49,32.05,49,32A17,17,0,1,0,32,49c.05,0,.1-.005.148-.006A14.9,14.9,0,0,1,47,32ZM32,35a3,3,0,0,1-2.816-2H24V31h5.184A3,3,0,0,1,31,29.184V20h2v9.184A2.993,2.993,0,0,1,32,35Z"/></g></svg>
