<svg height="512" viewBox="0 0 56 56" width="512" xmlns="http://www.w3.org/2000/svg"><g id="Page-1" fill="none" fill-rule="evenodd"><g id="021---Listen-Online" fill="rgb(0,0,0)" fill-rule="nonzero" transform="translate(-1)"><path id="Shape" d="m35 34c0-1.6568542-1.3431458-3-3-3h-6c-1.6568542 0-3 1.3431458-3 3v1h12z"/><path id="Shape" d="m35 16h-2c-.5522847 0-1-.4477153-1-1s.4477153-1 1-1h2v-2h-2c-.5522847 0-1-.4477153-1-1s.4477153-1 1-1h2c0-3.3137085-2.6862915-6-6-6s-6 2.6862915-6 6h2c.5522847 0 1 .4477153 1 1s-.4477153 1-1 1h-2v2h2c.5522847 0 1 .4477153 1 1s-.4477153 1-1 1h-2v3h12z"/><path id="Shape" d="m29 25c2.540182-.0029024 4.8032738-1.6050913 5.65-4h-11.3c.8467262 2.3949087 3.109818 3.9970976 5.65 4z"/><path id="Shape" d="m44 54h-30c-.5522847 0-1 .4477153-1 1s.4477153 1 1 1h30c.5522847 0 1-.4477153 1-1s-.4477153-1-1-1z"/><path id="Shape" d="m21.618 48-2 4h18.764l-2-4z"/><path id="Shape" d="m9 40h48v-38.818c.038076-.59858134-.4033821-1.12038476-1-1.182h-54c-.59661794.06161524-1.03807599.58341866-1 1.182v38.818h4c.55228475 0 1 .4477153 1 1s-.44771525 1-1 1h-4v2.818c-.03807599.5985813.40338206 1.1203848 1 1.182h54c.5966179-.0616152 1.038076-.5834187 1-1.182v-2.818h-48c-.55228475 0-1-.4477153-1-1s.44771525-1 1-1zm37.444-37.991c.3904999-.39038194 1.0235001-.39038194 1.414 0 8.1904401 8.2059771 8.1904401 21.4940229 0 29.7-.2510745.2599566-.6228779.3642126-.9725073.2726972-.3496295-.0915155-.6226744-.3645604-.7141899-.7141899-.0915154-.3496294.0127406-.7214328.2726972-.9725073 7.4077969-7.4249737 7.4077969-19.4450263 0-26.87-.1880834-.18760853-.2937876-.44234548-.2937876-.708s.1057042-.52039147.2937876-.708zm-2.828 2.828c.3904999-.39038194 1.0235001-.39038194 1.414 0 6.6291206 6.64272 6.6291206 17.39828 0 24.041-.3923789.3789722-1.0160848.3735524-1.4018186-.0121814s-.3911536-1.0094397-.0121814-1.4018186c5.8489085-5.8614918 5.8489085-15.3515082 0-21.213-.3903819-.39049985-.3903819-1.02350015 0-1.414zm-2.828 4.243c-.3633867-.39425229-.3511685-1.00494187.0276968-1.38434381.3788653-.37940193.989537-.39248447 1.3843032-.02965619 5.0691318 5.0796931 5.0691318 13.3043069 0 18.384-.3923789.3789722-1.0160848.3735524-1.4018186-.0121814s-.3911536-1.0094397-.0121814-1.4018186c4.2894725-4.2979135 4.2903672-11.2569837.002-15.556zm-19.788.92c0-4.418278 3.581722-8 8-8s8 3.581722 8 8v9c0 4.418278-3.581722 8-8 8s-8-3.581722-8-8zm0 24c.0033061-2.7600532 2.2399468-4.9966939 5-5h6c2.7600532.0033061 4.9966939 2.2399468 5 5v1c0 1.1045695-.8954305 2-2 2h-12c-1.1045695 0-2-.8954305-2-2zm-3.788-26.334c.3903819.39049985.3903819 1.02350015 0 1.414-4.2889198 4.2984649-4.2889198 11.2575351 0 15.556.270319.2484493.3827525.6250514.2928847.9810334s-.3675833.6340909-.7234377.7244625c-.3558545.0903715-.7326154-.0215288-.981447-.2914959-5.0691318-5.0796931-5.0691318-13.3043069 0-18.384.3902698-.38905089 1.0217302-.38905089 1.412 0zm-2.828-2.829c.3903819.39049985.3903819 1.02350015 0 1.414-5.84890854 5.8614918-5.84890854 15.3515082 0 21.213.2599566.2510745.3642126.6228779.2726972.9725073-.0915155.3496295-.3645604.6226744-.7141899.7141899-.3496294.0915154-.7214328-.0127406-.9725073-.2726972-6.62912059-6.64272-6.62912059-17.39828 0-24.041.3904999-.39038194 1.0235001-.39038194 1.414 0zm-10.384 12.021c-.0183107-5.571379 2.19340332-10.91845509 6.142-14.849.2510745-.25995658.6228779-.3642126.9725073-.27269716.3496295.09151544.6226744.3645604.7141899.71418984.0915154.34962943-.0127406.72143285-.2726972.97250732-7.40779687 7.4249737-7.40779687 19.4450263 0 26.87.2599566.2510745.3642126.6228779.2726972.9725073-.0915155.3496295-.3645604.6226744-.7141899.7141899-.3496294.0915154-.7214328-.0127406-.9725073-.2726972-3.94859668-3.9305449-6.1603107-9.277621-6.142-14.849z"/></g></g></svg>