<svg height="464pt" viewBox="0 0 464.06411 464" width="464pt" xmlns="http://www.w3.org/2000/svg"><path d="m81.039062 285.59375 96.210938 96.414062 16.972656-8.496093-104.773437-104.785157zm0 0"/><path d="m158.519531 79.054688c-8.046875-8.046876-22.253906-9.183594-31.535156-2.230469l-92.359375 69.207031 282.992188 282.976562 69.574218-91.976562c3.144532-4.152344 4.871094-9.296875 4.871094-14.496094 0-6.3125-2.558594-12.496094-7.03125-16.976562zm-16.390625 6.417968 45 44.953125-11.3125 11.316407-35.183594-35.15625-15.832031 11.863281-9.601562-12.800781zm-42.929687 32.160156 9.59375 12.808594-16 11.992188-9.59375-12.808594zm-27.199219 34.457032h144v16h-144zm72 72h144v16h-144zm216 88h-144v-16h144zm0 0"/><path d="m307.367188 112.035156 52.6875-52.6875 44.6875 44.6875-52.6875 52.6875zm0 0"/><path d="m283.371094 136.03125 12.6875-12.6875 44.6875 44.6875-12.6875 12.6875zm0 0"/><path d="m455.144531 90.433594-81.488281-81.488282c-5.742188-5.753906-13.382812-8.914062-21.519531-8.914062-8.289063 0-15.9375 3.160156-21.6875 8.914062l-1.5625 1.558594c-5.703125 5.703125-8.949219 13.609375-8.910157 21.679688.039063 8.074218 3.207032 15.65625 8.910157 21.367187l7.167969 7.167969 24-24 67.3125 67.3125-24 24 7.089843 7.089844c5.75 5.742187 13.390625 8.910156 21.527344 8.910156 8.289063 0 15.929687-3.167969 21.679687-8.910156l1.488282-1.488282c5.75-5.753906 8.910156-13.394531 8.910156-21.527343-.007812-8.289063-3.167969-15.929688-8.917969-21.671875zm0 0"/><path d="m181.152344 56.433594c-10.578125-10.578125-24.648438-16.402344-39.609375-16.402344-12.199219 0-24.125 3.976562-33.75 11.183594l-97.304688 72.914062c-6.59375 4.941406-10.5117185 12.808594-10.488281 21.054688.0234375 7.6875 2.753906 14.222656 7.671875 19.152344l292.023437 292.03125c4.945313 4.945312 11.519532 7.664062 18.511719 7.664062 8.160157 0 15.96875-3.878906 20.882813-10.382812l73.613281-97.304688c7.3125-9.671875 11.335937-21.671875 11.335937-33.800781 0-14.957031-5.824218-29.023438-16.398437-39.597657zm218.800781 290.253906-73.609375 97.304688c-1.894531 2.511718-4.9375 4.03125-8.121094 4.03125-2.71875 0-5.367187-1.113282-7.261718-3.046876l-291.976563-291.960937c-1.914063-1.953125-2.976563-4.542969-2.976563-7.175781 0-3.871094 1.359376-6.863282 4.039063-8.878906l97.335937-72.9375c6.890626-5.152344 15.410157-8 23.992188-8 10.640625 0 21.007812 4.273437 28.457031 11.71875l226.511719 226.507812c7.449219 7.460938 11.71875 17.765625 11.71875 28.285156 0 8.671875-2.886719 17.242188-8.109375 24.152344zm0 0"/></svg>