<?xml version="1.0"?>
<svg xmlns="http://www.w3.org/2000/svg" viewBox="0 0 64 64" width="512" height="512"><g id="Steering_Wheel" data-name="Steering Wheel"><path d="M53.741,21.85a24.013,24.013,0,0,0-2.065-3.568L37.953,25.268a8.976,8.976,0,0,1,2.979,5.677Z"/><path d="M12.324,18.282a24.013,24.013,0,0,0-2.065,3.568l12.809,9.095a8.976,8.976,0,0,1,2.979-5.677Z"/><path d="M32,39a7,7,0,1,0-7-7A7.008,7.008,0,0,0,32,39Zm0-10a3,3,0,1,1-3,3A3,3,0,0,1,32,29Z"/><path d="M46.85,8.279l-1,1.733a26.186,26.186,0,0,1,8.138,8.138l1.733-1A28.2,28.2,0,0,0,46.85,8.279Z"/><path d="M31,4.025A27.815,27.815,0,0,0,18.879,7.274l1,1.734A25.823,25.823,0,0,1,31,6.025Z"/><path d="M33,4.025v2A25.823,25.823,0,0,1,44.12,9.008l1-1.734A27.815,27.815,0,0,0,33,4.025Z"/><path d="M56,32a23.9,23.9,0,0,0-1.465-8.26l-13.661,9.7a8.992,8.992,0,0,1-3.009,5.372L36.127,55.638A24.035,24.035,0,0,0,56,32Z"/><circle cx="32" cy="32" r="1"/><path d="M33,59.975a27.815,27.815,0,0,0,12.121-3.249l-1-1.734A25.823,25.823,0,0,1,33,57.975Z"/><path d="M13.555,16.664l14.376,7.319a8.913,8.913,0,0,1,8.138,0l14.376-7.319a23.966,23.966,0,0,0-36.89,0Z"/><path d="M53.988,45.85a26.186,26.186,0,0,1-8.138,8.138l1,1.733a28.2,28.2,0,0,0,8.871-8.871Z"/><path d="M31,57.975a25.823,25.823,0,0,1-11.12-2.983l-1,1.734A27.815,27.815,0,0,0,31,59.975Z"/><path d="M34.088,55.9,35.711,40.19a8.906,8.906,0,0,1-7.422,0L29.912,55.9c.689.059,1.384.1,2.088.1S33.4,55.963,34.088,55.9Z"/><path d="M59.975,33h-2a25.823,25.823,0,0,1-2.983,11.12l1.734,1A27.815,27.815,0,0,0,59.975,33Z"/><path d="M56.726,18.879l-1.734,1A25.823,25.823,0,0,1,57.975,31h2A27.815,27.815,0,0,0,56.726,18.879Z"/><path d="M17.15,55.721l1-1.733a26.186,26.186,0,0,1-8.138-8.138l-1.733,1A28.2,28.2,0,0,0,17.15,55.721Z"/><path d="M4.025,31h2A25.823,25.823,0,0,1,9.008,19.88l-1.734-1A27.815,27.815,0,0,0,4.025,31Z"/><path d="M10.012,18.15a26.186,26.186,0,0,1,8.138-8.138l-1-1.733A28.2,28.2,0,0,0,8.279,17.15Z"/><path d="M7.274,45.121l1.734-1A25.823,25.823,0,0,1,6.025,33h-2A27.815,27.815,0,0,0,7.274,45.121Z"/><path d="M26.135,38.812a8.992,8.992,0,0,1-3.009-5.372L9.465,23.74a24,24,0,0,0,18.408,31.9Z"/></g></svg>
